<svg width="16" height="16" viewBox="0 0 16 16" fill="none" xmlns="http://www.w3.org/2000/svg">
<path fill-rule="evenodd" clip-rule="evenodd" d="M3.33325 7.33333H5.33325L5.53735 7.32259C6.54603 7.22032 7.33325 6.36898 7.33325 5.33333V3.33333C7.33325 2.22876 6.43782 1.33333 5.33325 1.33333H3.33325C2.22868 1.33333 1.33325 2.22876 1.33325 3.33333V5.33333L1.34399 5.53743C1.43945 6.47898 2.1876 7.22713 3.12915 7.32259L3.33325 7.33333ZM5.33325 5.83333H3.33325C3.05711 5.83333 2.83325 5.60947 2.83325 5.33333V3.33333C2.83325 3.05719 3.05711 2.83333 3.33325 2.83333H5.33325C5.60939 2.83333 5.83325 3.05719 5.83325 3.33333V5.33333C5.83325 5.60947 5.60939 5.83333 5.33325 5.83333ZM3.33325 14.6667H5.33325L5.53735 14.6559C6.54603 14.5537 7.33325 13.7023 7.33325 12.6667V10.6667C7.33325 9.56209 6.43782 8.66666 5.33325 8.66666H3.33325C2.22868 8.66666 1.33325 9.56209 1.33325 10.6667V12.6667L1.34399 12.8708C1.43945 13.8123 2.1876 14.5605 3.12915 14.6559L3.33325 14.6667ZM5.33325 13.1667H3.33325C3.05711 13.1667 2.83325 12.9428 2.83325 12.6667V10.6667C2.83325 10.3905 3.05711 10.1667 3.33325 10.1667H5.33325C5.60939 10.1667 5.83325 10.3905 5.83325 10.6667V12.6667C5.83325 12.9428 5.60939 13.1667 5.33325 13.1667ZM12.6666 7.33333H10.6666L10.4625 7.32259C9.52093 7.22713 8.77278 6.47898 8.67733 5.53743L8.66658 5.33333V3.33333C8.66658 2.22876 9.56202 1.33333 10.6666 1.33333H12.6666C13.7712 1.33333 14.6666 2.22876 14.6666 3.33333V5.33333C14.6666 6.36898 13.8794 7.22032 12.8707 7.32259L12.6666 7.33333ZM10.6666 5.83333H12.6666C12.9427 5.83333 13.1666 5.60947 13.1666 5.33333V3.33333C13.1666 3.05719 12.9427 2.83333 12.6666 2.83333H10.6666C10.3904 2.83333 10.1666 3.05719 10.1666 3.33333V5.33333C10.1666 5.60947 10.3904 5.83333 10.6666 5.83333ZM10.6666 14.6667H12.6666L12.8707 14.6559C13.8794 14.5537 14.6666 13.7023 14.6666 12.6667V10.6667C14.6666 9.56209 13.7712 8.66666 12.6666 8.66666H10.6666C9.56202 8.66666 8.66658 9.56209 8.66658 10.6667V12.6667L8.67733 12.8708C8.77278 13.8123 9.52093 14.5605 10.4625 14.6559L10.6666 14.6667ZM12.6666 13.1667H10.6666C10.3904 13.1667 10.1666 12.9428 10.1666 12.6667V10.6667C10.1666 10.3905 10.3904 10.1667 10.6666 10.1667H12.6666C12.9427 10.1667 13.1666 10.3905 13.1666 10.6667V12.6667C13.1666 12.9428 12.9427 13.1667 12.6666 13.1667Z" fill="#fff"/>
</svg>
