<svg width="24" height="24" viewBox="0 0 24 24" fill="none" xmlns="http://www.w3.org/2000/svg">
<path fill-rule="evenodd" clip-rule="evenodd" d="M14.4798 5.35367C14.968 4.86551 15.7594 4.86551 16.2476 5.35367L16.6919 5.79797C17.1801 6.28612 17.1801 7.07758 16.6919 7.56573L16.1819 8.07575L13.9698 5.86369L14.4798 5.35367ZM12.9092 6.92435L6.23644 13.5971L5.68342 16.3621L8.44851 15.8091L15.1212 9.13641L12.9092 6.92435ZM16.707 9.67191L9.3486 17.0304C9.24389 17.1351 9.11055 17.2064 8.96535 17.2355L4.87444 18.0536C4.62855 18.1028 4.37434 18.0259 4.19703 17.8485C4.01971 17.6712 3.94274 17.417 3.99192 17.1711L4.8101 13.0802C4.83914 12.935 4.91051 12.8017 5.01521 12.697L13.4192 4.293C14.4931 3.21906 16.2343 3.21906 17.3083 4.29301L17.7526 4.73731C18.8265 5.81125 18.8265 7.55245 17.7526 8.62639L16.7174 9.66158C16.7157 9.66332 16.714 9.66505 16.7122 9.66677C16.7105 9.66849 16.7088 9.67021 16.707 9.67191ZM3.15918 20.5908C3.15918 20.1765 3.49497 19.8408 3.90918 19.8408H20.2728C20.687 19.8408 21.0228 20.1765 21.0228 20.5908C21.0228 21.005 20.687 21.3408 20.2728 21.3408H3.90918C3.49497 21.3408 3.15918 21.005 3.15918 20.5908Z" fill="#ffeed9"/>
</svg>
